# xmcd
#
# Track frame offsets:
# 150
# 21123
# 36502
# 55682
# 73775
# 85536
# 98991
# 118990
# 141800
# 160761
# 173399
# 187015
# 205609
# 225600
# 242850
# 264477
# 279259
# 291029
# 304357
# 324628
#
# Disc length: 4491 seconds
#
# Revision: 0
# Processed by: cddbd v1.5.2PL0 Copyright (c) Steve Scherf et al.
# Submitted via: Audion 3.0.2 (http://www.panic.com/audion/)
#
DISCID=1b118914
DTITLE=dj nanou - a l'ancienne dj nanou
DYEAR=1900
DGENRE=
TTITLE0=a l'ancienne dj nanou
TTITLE1=a l'ancienne dj nanou
TTITLE2=a l'ancienne dj nanou
TTITLE3=a l'ancienne dj nanou
TTITLE4=a l'ancienne dj nanou
TTITLE5=a l'ancienne dj nanou
TTITLE6=a l'ancienne dj nanou
TTITLE7=a l'ancienne dj nanou
TTITLE8=a l'ancienne dj nanou
TTITLE9=a l'ancienne dj nanou
TTITLE10=a l'ancienne dj nanou
TTITLE11=a l'ancienne dj nanou
TTITLE12=a l'ancienne dj nanou
TTITLE13=a l'ancienne dj nanou
TTITLE14=a l'ancienne dj nanou
TTITLE15=a l'ancienne dj nanou
TTITLE16=a l'ancienne dj nanou
TTITLE17=a l'ancienne dj nanou
TTITLE18=a l'ancienne dj nanou
TTITLE19=a l'ancienne dj nanou
EXTD=
EXTT0=
EXTT1=
EXTT2=
EXTT3=
EXTT4=
EXTT5=
EXTT6=
EXTT7=
EXTT8=
EXTT9=
EXTT10=
EXTT11=
EXTT12=
EXTT13=
EXTT14=
EXTT15=
EXTT16=
EXTT17=
EXTT18=
EXTT19=
PLAYORDER=
